<svg xmlns="http://www.w3.org/2000/svg" width="172.008" height="39.822" viewBox="0 0 172.008 39.822">
    <defs>
        <style>
            .cls-1{fill:url(#linear-gradient)}
        </style>
        <linearGradient id="linear-gradient" x1=".5" x2=".083" y2=".92" gradientUnits="objectBoundingBox">
            <stop offset="0" stop-color="#098bff"/>
            <stop offset=".481" stop-color="#00b2ff"/>
            <stop offset="1" stop-color="#00cfee"/>
        </linearGradient>
    </defs>
    <path id="Union_7" d="M3818-10658.089a19.934 19.934 0 0 1 19.912-19.91 19.934 19.934 0 0 1 19.912 19.91 19.936 19.936 0 0 1-19.912 19.912 19.936 19.936 0 0 1-19.912-19.912zm18.738-1.174l-8.3 8.3v.006s-.009 0-.014.008a1.429 1.429 0 0 0-.191.3 1.554 1.554 0 0 0-.16.244 2.3 2.3 0 0 0-.058.293 1.784 1.784 0 0 0-.062.334c0 .09.04.168.053.258a1.451 1.451 0 0 0 .076.365 1.311 1.311 0 0 0 .151.23 1.849 1.849 0 0 0 .2.313h.009a13.6 13.6 0 0 0 9.458 3.793 13.287 13.287 0 0 0 13.273-13.273 13.287 13.287 0 0 0-13.273-13.271 13.287 13.287 0 0 0-13.273 13.271 13.353 13.353 0 0 0 .552 3.8 1.654 1.654 0 0 0 2.063 1.115 1.662 1.662 0 0 0 1.116-2.066 9.945 9.945 0 0 1-.414-2.852 9.965 9.965 0 0 1 9.956-9.955 9.965 9.965 0 0 1 9.956 9.955 9.965 9.965 0 0 1-9.956 9.957 10.574 10.574 0 0 1-5.821-1.787l6.995-7a1.659 1.659 0 0 0 0-2.348 1.657 1.657 0 0 0-1.174-.484 1.651 1.651 0 0 0-1.162.494zm4.492 1.174a3.334 3.334 0 0 1-1.107 2.477 1.66 1.66 0 0 0-.129 2.34 1.659 1.659 0 0 0 1.236.557 1.663 1.663 0 0 0 1.107-.424 6.647 6.647 0 0 0 2.214-4.949 6.647 6.647 0 0 0-6.639-6.639 6.637 6.637 0 0 0-4.945 2.215 1.656 1.656 0 0 0 .129 2.344 1.655 1.655 0 0 0 2.343-.129 3.306 3.306 0 0 1 2.473-1.107 3.32 3.32 0 0 1 3.317 3.315zm141.892 12.592l-5.577-9.729h-1.422v9.729h-6.23v-25.758h10.641a11.511 11.511 0 0 1 5.176 1.055 7.34 7.34 0 0 1 3.17 2.9 8.307 8.307 0 0 1 1.054 4.207 7.493 7.493 0 0 1-1.547 4.775 7.906 7.906 0 0 1-4.5 2.693l6.123 10.129zm-7-13.988h3.864a3.891 3.891 0 0 0 2.735-.822 3.162 3.162 0 0 0 .871-2.424 3.209 3.209 0 0 0-.889-2.4 3.727 3.727 0 0 0-2.717-.877h-3.864zm-15.266 13.988l-1.605-4.7h-9.651l-1.6 4.7h-6.559l9.44-25.576h7.177l9.436 25.576zm-9.658-9.436h6.452l-3.206-9.475zm-34.613 9.436v-25.758h9.729a15.163 15.163 0 0 1 7.177 1.6 11.216 11.216 0 0 1 4.647 4.523 13.554 13.554 0 0 1 1.619 6.7 13.674 13.674 0 0 1-1.619 6.723 11.362 11.362 0 0 1-4.665 4.576 14.907 14.907 0 0 1-7.159 1.635zm6.23-5.57h2.952a7.865 7.865 0 0 0 5.665-1.934 7.148 7.148 0 0 0 2.023-5.43 7.159 7.159 0 0 0-2.023-5.43 7.881 7.881 0 0 0-5.665-1.93h-2.952zm-15.27 5.57l-1.6-4.7h-9.658l-1.6 4.7h-6.559l9.436-25.576h7.177l9.44 25.576zm-9.653-9.436h6.447l-3.206-9.475zm-17.858 9.436l-5.572-9.729h-1.422v9.729h-6.23v-25.758h10.641a11.491 11.491 0 0 1 5.171 1.055 7.3 7.3 0 0 1 3.171 2.9 8.274 8.274 0 0 1 1.058 4.207 7.49 7.49 0 0 1-1.547 4.775 7.921 7.921 0 0 1-4.5 2.693l6.119 10.129zm-6.994-13.988h3.864a3.885 3.885 0 0 0 2.73-.822 3.163 3.163 0 0 0 .876-2.424 3.2 3.2 0 0 0-.894-2.4 3.715 3.715 0 0 0-2.712-.877h-3.864z" class="cls-1" data-name="Union 7" transform="translate(-3818 10677.999)"/>
</svg>
