<svg xmlns="http://www.w3.org/2000/svg" width="24" height="13.175" viewBox="0 0 24 13.175">
    <defs>
        <style>
            .cls-1{fill:#3499ff}
        </style>
    </defs>
    <g id="sensors" transform="translate(2 2)">
        <path id="Path_40" d="M43.118 9.658a1.551 1.551 0 0 0-1.476 1.09h-2.355V6.111A1.523 1.523 0 0 0 37.776 4.6H27.519a1.5 1.5 0 0 0-1.441 1.476v4.636h-2.355a1.547 1.547 0 1 0 0 .914h2.355v4.636a1.523 1.523 0 0 0 1.511 1.511h10.292a1.5 1.5 0 0 0 1.441-1.473v-4.638h2.355a1.546 1.546 0 1 0 1.441-2zm-10.436 3.8a2.251 2.251 0 0 1-.105-4.5h.105a2.251 2.251 0 0 1 .105 4.5z" class="cls-1" data-name="Path 40" transform="translate(-22.7 -6.6)"/>
    </g>
</svg>
