<svg xmlns="http://www.w3.org/2000/svg" id="noun_Warning_538056_000000" width="16" height="16" viewBox="0 0 16 16">
    <defs>
        <style>
            .cls-1{fill:#f83a8a}
        </style>
    </defs>
    <path id="Path_584" d="M12.7 4.7a8 8 0 1 0 8 8 8 8 0 0 0-8-8zm0 13.121a.954.954 0 1 1 .954-.954.961.961 0 0 1-.954.954zm0-2.879c-.706 0-1.272-5.369-1.272-6.075A1.281 1.281 0 0 1 12.7 7.579a1.266 1.266 0 0 1 1.271 1.271c0 .707-.565 6.093-1.271 6.093z" class="cls-1" data-name="Path 584" transform="translate(-4.7 -4.7)"/>
</svg>
