<svg xmlns="http://www.w3.org/2000/svg" width="16.495" height="17.669" viewBox="0 0 16.495 17.669">
    <defs>
        <style>
            .cls-1{fill:#78849e}
        </style>
    </defs>
    <path id="hide" d="M23.4 6.82L11.084 23.461l1.39 1.029L24.793 7.849zm2.577 8.437a8.4 8.4 0 0 0-3.343-3.405L20.7 14.467a3 3 0 0 1-3.091 4.176l-1.4 1.886a9.652 9.652 0 0 0 1.726.16 9.034 9.034 0 0 0 8.041-4.636l.206-.4zm-12.739 4.2l1.937-2.616a3 3 0 0 1 3.091-4.176l1.4-1.886a9.652 9.652 0 0 0-1.726-.159 9.034 9.034 0 0 0-8.04 4.637l-.206.4.206.4a8.4 8.4 0 0 0 3.341 3.402z" class="cls-1" transform="translate(-9.691 -6.82)"/>
</svg>
