<svg xmlns="http://www.w3.org/2000/svg" width="20" height="20" viewBox="0 0 20 20">
    <defs>
        <style>
            .cls-1{fill:#78849e}
        </style>
    </defs>
    <g id="places" transform="translate(-5 -5)">
        <path id="Path_45" d="M17.355 79.225c-.2.31-.389.6-.567.867a30.013 30.013 0 0 1 6.381.749.116.116 0 0 1 0 .223 34.1 34.1 0 0 1-8.169.778 34.11 34.11 0 0 1-8.168-.777.116.116 0 0 1 0-.223 30.013 30.013 0 0 1 6.381-.749 59.953 59.953 0 0 1-.567-.867C8.259 79.413 5 80.115 5 80.953c0 .982 4.477 1.778 10 1.778s10-.8 10-1.778c0-.838-3.259-1.54-7.645-1.728z" class="cls-1" data-name="Path 45" transform="translate(0 -57.731)"/>
        <path id="Path_46" d="M29.678 23.129c.987-1.387 5.677-8.2 5.677-12.271a5.858 5.858 0 1 0-11.716 0c0 4.076 4.691 10.884 5.677 12.271a.221.221 0 0 0 .361 0zM26.1 10.858a3.4 3.4 0 1 1 3.4 3.4 3.4 3.4 0 0 1-3.4-3.4z" class="cls-1" data-name="Path 46" transform="translate(-14.497)"/>
    </g>
</svg>
