<svg xmlns="http://www.w3.org/2000/svg" width="20" height="19.255" viewBox="0 0 20 19.255">
    <defs>
        <style>
            .cls-1{fill:#3499ff}
        </style>
    </defs>
    <g id="noun_polygon_565307_000000" transform="translate(-9.527 -12.9)">
        <path id="Path_41" d="M19.533 13.342a1.927 1.927 0 0 1 1.139.376l7.62 5.53A1.942 1.942 0 0 1 29 21.416l-2.909 8.959a1.935 1.935 0 0 1-1.847 1.338h-9.423a1.95 1.95 0 0 1-1.847-1.338l-2.909-8.947a1.92 1.92 0 0 1 .708-2.168l7.62-5.53a1.865 1.865 0 0 1 1.139-.387m0-.442a2.441 2.441 0 0 0-1.4.453l-7.62 5.53a2.372 2.372 0 0 0-.863 2.665l2.909 8.959a2.387 2.387 0 0 0 2.267 1.648h9.412a2.387 2.387 0 0 0 2.263-1.649l2.909-8.959a2.389 2.389 0 0 0-.863-2.665l-7.62-5.53a2.382 2.382 0 0 0-1.394-.453z" class="cls-1" data-name="Path 41"/>
        <path id="Path_42" d="M58.221 52.716l-4.8-3.484a1.062 1.062 0 0 0-1.261 0l-4.8 3.484a1.065 1.065 0 0 0-.387 1.194l1.836 5.652a1.069 1.069 0 0 0 1.018.741h5.939a1.069 1.069 0 0 0 1.018-.741l1.836-5.641a1.1 1.1 0 0 0-.399-1.205zm-5.453 2.765a.354.354 0 1 1 .354-.354.349.349 0 0 1-.353.354z" class="cls-1" data-name="Path 42" transform="translate(-33.258 -32.13)"/>
    </g>
</svg>
