<svg xmlns="http://www.w3.org/2000/svg" width="20" height="12.887" viewBox="0 0 20 12.887">
    <defs>
        <style>
            .cls-1{fill:#3499ff}
        </style>
    </defs>
    <path id="noun_Binoculars_1236068_000000" d="M20.792 25.333h.053l-2-3.789a2.982 2.982 0 0 0-1.543-1.3 2.884 2.884 0 0 0-5.326.041 1.976 1.976 0 0 0-1.776 0 2.882 2.882 0 0 0-5.341 0A2.974 2.974 0 0 0 3.4 21.558L1.843 24.4a4.464 4.464 0 1 0 8.143 2.921 4.2 4.2 0 0 0 .02-.423 4.523 4.523 0 0 0-.088-.893 4.411 4.411 0 0 0-.153-.542 1.459 1.459 0 0 1 2.624 0 4.437 4.437 0 0 0-.153.544 4.523 4.523 0 0 0-.088.893q0 .2.02.409a4.464 4.464 0 1 0 8.623-1.978zM5.54 29.9a2.994 2.994 0 1 1 2.88-3.851 2.917 2.917 0 0 1 .127.856A3 3 0 0 1 5.54 29.9zm11.074 0a3 3 0 0 1-3-2.994 2.929 2.929 0 0 1 .125-.86 3.019 3.019 0 0 1 2.88-2.138 2.984 2.984 0 0 1 2.179.94h.012l.155.19a2.992 2.992 0 0 1-2.351 4.862z" class="cls-1" transform="translate(-1.078 -18.482)"/>
</svg>
