<svg xmlns="http://www.w3.org/2000/svg" width="26" height="23.159" viewBox="0 0 26 23.159">
    <defs>
        <style>
            .cls-1{fill:#78849e}
        </style>
    </defs>
    <path id="Camera" d="M356.09 224.792a2.77 2.77 0 0 1-1.741-.569 13.018 13.018 0 0 1 3.268-22.59 5.211 5.211 0 0 0 9.093 0 13.018 13.018 0 0 1 3.268 22.59 2.767 2.767 0 0 1-1.741.569zm-1.137-11.3a7.21 7.21 0 1 0 7.211-7.21 7.215 7.215 0 0 0-7.211 7.218zm1.883 0a5.328 5.328 0 1 1 5.328 5.328 5.32 5.32 0 0 1-5.328-5.32zm1.456 0a3.871 3.871 0 1 0 3.872-3.871 3.881 3.881 0 0 0-3.872 3.879zm3.374 0a.5.5 0 1 1 .5.5.5.5 0 0 1-.5-.492z" class="cls-1" transform="translate(-349.163 -201.633)"/>
</svg>
