<svg xmlns="http://www.w3.org/2000/svg" width="16" height="12.245" viewBox="0 0 16 12.245">
    <defs>
        <style>
            .cls-1{fill:#3499ff}
        </style>
    </defs>
    <g id="noun_filter_787737_000000" transform="translate(-6.5 -16.708)">
        <path id="Path_48" d="M22.5 18.486a.92.92 0 0 1-.92.92H7.42a.92.92 0 0 1-.92-.92v-.858a.92.92 0 0 1 .92-.92h14.16a.92.92 0 0 1 .92.92z" class="cls-1" data-name="Path 48"/>
        <path id="Path_49" d="M31.983 44.445a.919.919 0 0 1-.92.92H22.42a.919.919 0 0 1-.92-.92v-.858a.919.919 0 0 1 .92-.92h8.644a.919.919 0 0 1 .92.92z" class="cls-1" data-name="Path 49" transform="translate(-12.241 -21.185)"/>
        <path id="Path_50" d="M41.466 70.4a.92.92 0 0 1-.92.92H37.42a.92.92 0 0 1-.92-.92v-.858a.92.92 0 0 1 .92-.92h3.126a.92.92 0 0 1 .92.92z" class="cls-1" data-name="Path 50" transform="translate(-24.483 -42.369)"/>
    </g>
</svg>
