<svg xmlns="http://www.w3.org/2000/svg" width="37.139" height="37.139" viewBox="0 0 37.139 37.139">
    <defs>
        <style>
            .cls-1{fill:#78849e;fill-rule:evenodd}
        </style>
    </defs>
    <path id="radar" d="M22.714 6.65a11.393 11.393 0 1 0 1.7 15.51.834.834 0 0 1 1.332 1A13.061 13.061 0 1 1 23.9 5.468l.806-.806a.889.889 0 0 1 1.254 1.257L17.381 14.5a2.221 2.221 0 1 1-1.258-1.258l2.638-2.642a5.836 5.836 0 1 0 2.386 4.708.834.834 0 1 1 1.667 0 7.5 7.5 0 1 1-2.864-5.9zm4.268 13.107a1.667 1.667 0 1 1 1.668-1.667 1.667 1.667 0 0 1-1.667 1.667z" class="cls-1" transform="rotate(135 16.335 17.586)"/>
</svg>
