<svg xmlns="http://www.w3.org/2000/svg" width="20.308" height="20.308" viewBox="0 0 20.308 20.308">
    <defs>
        <style>
            .cls-1{fill:#313954}
        </style>
    </defs>
    <path id="Union_6" d="M1271.744 630.211l-9.453-4.92a.606.606 0 0 1 0-1.036l1.769-.906a.473.473 0 0 1 .346 0l6.776 3.539a2.353 2.353 0 0 0 .95.216 1.9 1.9 0 0 0 .949-.216l6.777-3.539a.471.471 0 0 1 .345 0l1.77.906a.627.627 0 0 1 .043 1.036l-9.453 4.92a.913.913 0 0 1-.82 0zm0-4.662l-9.453-4.92a.606.606 0 0 1 0-1.036l1.769-.906a.474.474 0 0 1 .346 0l6.776 3.54a2.354 2.354 0 0 0 .95.215 1.9 1.9 0 0 0 .949-.215l6.777-3.54a.472.472 0 0 1 .345 0l1.77.906a.627.627 0 0 1 .043 1.036l-9.453 4.92a.913.913 0 0 1-.82 0zm0-4.575l-9.453-4.92a.606.606 0 0 1 0-1.036l9.453-4.92a.825.825 0 0 1 .777 0l9.5 4.92a.606.606 0 0 1 0 1.036l-9.453 4.92a.913.913 0 0 1-.82 0z" class="cls-1" data-name="Union 6" transform="translate(-1262 -610)"/>
</svg>
